<svg viewBox="0 0 620 397" xmlns="http://www.w3.org/2000/svg"><path d="m.5-.5h620.5v271.5h-620.5z" fill="#ed400a"/><path clip-rule="evenodd" d="m-.5-.1c0-.1.7-.1 1.5-.1h616c.8 0 1.5.1 1.5.1v4.1c0 .1-.7.1-1.5.1h-616c-.8 0-1.5-.1-1.5-.1zm0 8.8v-3.7s.7-.1 1.5-.1h616c.8 0 1.5.1 1.5.1v3.7c0 .1-.7.1-1.5.1h-616c-.8.1-1.5 0-1.5-.1zm0 4.7v-3.3c0-.1.7-.1 1.5-.1h616c.8 0 1.5.1 1.5.1v3.3c0 .1-.7.1-1.5.1h-616c-.8.1-1.5 0-1.5-.1zm0 4.7v-2.8c0-.1.7-.1 1.5-.1h616c.8 0 1.5.1 1.5.1v2.8c0 .1-.7.1-1.5.1h-616c-.8 0-1.5 0-1.5-.1zm0 4.7v-2.4c0-.1.7-.1 1.5-.1h616c.8 0 1.5.1 1.5.1v2.4c0 .1-.7.1-1.5.1h-616c-.8 0-1.5 0-1.5-.1zm0 4.7v-1.9c0-.1.7-.1 1.5-.1h616c.8 0 1.5.1 1.5.1v1.9c0 .1-.7.1-1.5.1h-616c-.8 0-1.5-.1-1.5-.1zm0 4.6v-1.5c0-.1.7-.1 1.5-.1h616c.8 0 1.5.1 1.5.1v1.5c0 .1-.7.1-1.5.1h-616c-.8.1-1.5 0-1.5-.1zm0 4.7v-1.1c0-.1.7-.1 1.5-.1h616c.8 0 1.5.1 1.5.1v1.1c0 .1-.7.1-1.5.1h-616c-.8 0-1.5 0-1.5-.1zm0 4.7v-.6c0-.1.7-.1 1.5-.1h616c.8 0 1.5.1 1.5.1v.6c0 .1-.7.1-1.5.1h-616c-.8 0-1.5 0-1.5-.1zm0 4.5c0-.1.7-.1 1.5-.1h616c.8 0 1.5.1 1.5.1v.2c0 .1-.7.1-1.5.1h-616c-.8 0-1.5-.1-1.5-.1z" fill="#990024" fill-rule="evenodd"/><path clip-rule="evenodd" d="m-.5 234.7c0 .1.7.1 1.5.1h616c.8 0 1.5-.1 1.5-.1v-3.7c0-.1-.7-.1-1.5-.1h-616c-.8 0-1.5.1-1.5.1zm0-7.9v3.3c0 .1.7.1 1.5.1h616c.8 0 1.5-.1 1.5-.1v-3.3c0-.1-.7-.1-1.5-.1h-616c-.8 0-1.5 0-1.5.1zm0-4.2v2.9c0 .1.7.1 1.5.1h616c.8 0 1.5-.1 1.5-.1v-2.9c0-.1-.7-.1-1.5-.1h-616c-.8 0-1.5.1-1.5.1zm0-4.1v2.5c0 .1.7.1 1.5.1h616c.8 0 1.5-.1 1.5-.1v-2.5c0-.1-.7-.1-1.5-.1h-616c-.8-.1-1.5 0-1.5.1zm0-4.2v2.1c0 .1.7.1 1.5.1h616c.8 0 1.5-.1 1.5-.1v-2.1c0-.1-.7-.1-1.5-.1h-616c-.8 0-1.5 0-1.5.1zm0-4.2v1.7c0 .1.7.1 1.5.1h616c.8 0 1.5-.1 1.5-.1v-1.7c0-.1-.7-.1-1.5-.1h-616c-.8 0-1.5 0-1.5.1zm0-4.2v1.3c0 .1.7.1 1.5.1h616c.8 0 1.5-.1 1.5-.1v-1.3c0-.1-.7-.1-1.5-.1h-616c-.8 0-1.5.1-1.5.1zm0-4.1v.9c0 .1.7.1 1.5.1h616c.8 0 1.5-.1 1.5-.1v-.9c0-.1-.7-.1-1.5-.1h-616c-.8-.1-1.5 0-1.5.1zm0-4.2v.5c0 .1.7.1 1.5.1h616c.8 0 1.5-.1 1.5-.1v-.5c0-.1-.7-.1-1.5-.1h-616c-.8 0-1.5 0-1.5.1zm0-4c0 .1.7.1 1.5.1h616c.8 0 1.5-.1 1.5-.1v-.2c0-.1-.7-.1-1.5-.1h-616c-.8 0-1.5.1-1.5.1zm573.3-92.1c0 13-10.5 23.5-23.5 23.5s-23.5-10.5-23.5-23.5 10.5-23.5 23.5-23.5 23.5 10.5 23.5 23.5z" fill="#ff6624" fill-rule="evenodd"/><path d="m546.6 94.8h13.7c4.3 0 7-.3 7-.3s-1.8-.2-6.8-.2h-27.8c-5.1 0-6.8.2-6.8.2s2.7.3 7 .2zm0-.9h13.5c4.3 0 7-.3 7-.3s-1.8-.2-6.8-.2h-27.2c-5.1 0-6.8.2-6.8.2s2.7.3 7 .2zm0-2.6h12.3c4.3 0 7-.3 7-.3s-1.8-.2-6.8-.2h-24.8c-5.1 0-6.8.2-6.8.2s2.7.3 7 .2zm0 4.3h14c4.3 0 7-.3 7-.3s-1.8-.2-6.8-.2h-28.2c-5.1 0-6.8.2-6.8.2s2.7.3 7 .2zm0-2.6h13.1c4.3 0 7-.3 7-.3s-1.8-.2-6.8-.2h-26.4c-5.1 0-6.8.2-6.8.2s2.7.3 7 .2zm0-2.5h11.9c4.3 0 7-.3 7-.3s-1.8-.2-6.8-.2h-24.2c-5.1 0-6.8.2-6.8.2s2.7.3 7 .2zm0 1.7h12.7c4.3 0 7-.3 7-.3s-1.8-.2-6.8-.2h-25.8c-5.1 0-6.8.2-6.8.2s2.7.3 7 .2zm0 7.7h14.6c4.3 0 7-.3 7-.3s-1.8-.2-6.8-.2h-29.6c-5.1 0-6.8.2-6.8.2s2.7.3 7 .2zm0-.8h14.6c4.3 0 7-.3 7-.3s-1.8-.2-6.8-.2h-29.4c-5.1 0-6.8.2-6.8.2s2.7.3 7 .2zm0 1.7h14.7c4.3 0 7-.3 7-.3s-1.8-.2-6.8-.2h-29.8c-5.1 0-6.8.2-6.8.2s2.7.3 7 .2zm0-2.6h14.5c4.3 0 7-.3 7-.3s-1.8-.2-6.8-.2h-29.2c-5.1 0-6.8.2-6.8.2s2.7.3 7 .2zm0-1.7h14.2c4.3 0 7-.3 7-.3s-1.8-.2-6.9-.2h-28.6c-5.1 0-6.8.2-6.8.2s2.7.3 7 .2zm0 .9h14.3c4.3 0 7-.3 7-.3s-1.8-.2-6.8-.2h-29c-5.1 0-6.8.2-6.8.2s2.7.3 7 .2zm0 4.3h14.8c4.3 0 7-.3 7-.3s-1.8-.2-6.8-.2h-29.8c-5.1 0-6.8.2-6.8.2s2.7.3 7 .2zm0-19.9h3.7c4.3 0 7-.3 7-.3s-1.8-.2-6.8-.2h-7.8c-5.1 0-6.8.2-6.8.2s2.7.3 7 .2zm0-.8h2c4.3 0 7-.3 7-.3s-1.8-.2-6.8-.2h-4.4c-5.1 0-6.8.2-6.8.2s2.7.3 7 .2zm0 1.7h5c4.3 0 7-.3 7-.3s-1.8-.2-6.8-.2h-10.2c-5.1 0-6.8.2-6.8.2s2.7.3 7 .2zm0 6.9h11.4c4.3 0 7-.3 7-.3s-1.8-.2-6.8-.2h-23c-5.1 0-6.8.2-6.8.2s2.7.3 7 .2zm0-9.5h.1c4.3 0 7-.3 7-.3s-1.8-.2-6.8-.2h-.6c-5.1 0-6.8.2-6.8.2s2.7.3 7.1.3zm0 3.5h6c4.3 0 7-.3 7-.3s-1.8-.2-6.8-.2h-12.4c-5.1 0-6.8.2-6.8.2s2.7.3 7 .2zm0-4.4c2.9-.1 4.6-.2 4.6-.2s-1.2-.2-4.6-.2c-3.3.1-4.6.2-4.6.2s1.7.2 4.6.2zm0 9.5h10.9c4.3 0 7-.3 7-.3s-1.8-.2-6.8-.2h-22c-5.1 0-6.8.2-6.8.2s2.7.3 7 .2zm0-.8h10.3c4.3 0 7-.3 7-.3s-1.8-.2-6.8-.2h-20.8c-5.1 0-6.8.2-6.8.2s2.7.3 7 .2zm0-2.6h8c4.3 0 7-.3 7-.3s-1.8-.2-6.8-.2h-16.2c-5.1 0-6.8.2-6.8.2s2.7.3 7 .2zm0-.9h7.1c4.3 0 7-.3 7-.3s-1.8-.2-6.8-.2h-14.4c-5.1 0-6.8.2-6.8.2s2.7.3 7 .2zm0 2.6h9.6c4.3 0 7-.3 7-.3s-1.8-.2-6.8-.2h-19.4c-5.1 0-6.8.2-6.8.2s2.7.3 7 .2zm0-.9h8.9c4.3 0 7-.3 7-.3s-1.8-.2-6.8-.2h-18c-5.1 0-6.8.2-6.8.2s2.7.3 7 .2zm11.8 26.3h-23.8c-5.1 0-6.8.2-6.8.2s2.7.3 7 .2h23.6c4.3 0 7-.3 7-.3s-1.8-.2-6.8-.2zm1.6-3.5h-26.8c-5.1 0-6.8.2-6.8.2s2.7.3 7 .2h26.6c4.3 0 7-.3 7-.3s-1.8-.2-6.8-.2zm.3-.8h-27.4c-5.1 0-6.8.2-6.8.2s2.7.3 7 .2h27.2c4.3 0 7-.3 7-.3s-1.8-.2-6.8-.2zm-1.3 3.4h-24.8c-5.1 0-6.8.2-6.8.2s2.7.3 7 .2h24.6c4.3 0 7-.3 7-.3s-1.8-.2-6.8-.2zm1.5-4.3h-28c-5.1 0-6.8.2-6.8.2s2.7.3 7 .2h27.8c4.3 0 7-.3 7-.3s-1.8-.2-6.8-.2zm-1.2 3.5h-25.4c-5.1 0-6.8.2-6.8.2s2.7.3 7 .2h25.2c4.3 0 7-.3 7-.3s-1.8-.2-6.8-.2zm.4-.9h-26.2c-5.1 0-6.8.2-6.8.2s2.7.3 7 .2h26c4.3 0 7-.3 7-.3s-1.8-.2-6.8-.2zm1.6-6.9h-29.4c-5.1 0-6.8.2-6.8.2s2.7.3 7 .2h29.2c4.3 0 7-.3 7-.3s-1.8-.2-6.8-.2zm-.1.9h-29.4c-5.1 0-6.8.2-6.8.2s2.7.3 7 .2h29.2c4.3 0 7-.3 7-.3s-1.8-.2-6.8-.2zm.1-1.8h-29.4c-5.1 0-6.8.2-6.8.2s2.7.3 7 .2h29.2c4.3 0 7-.3 7-.3s-1.8-.2-6.8-.2zm-.2 2.6h-29.2c-5.1 0-6.8.2-6.8.2s2.7.3 7 .2h29c4.3 0 7-.3 7-.3s-1.8-.2-6.8-.2zm-.2.9h-28.8c-5.1 0-6.8.2-6.8.2s2.7.3 7 .2h28.6c4.3 0 7-.3 7-.3s-1.8-.2-6.8-.2zm-.1.8h-28.6c-5.1 0-6.8.2-6.8.2s2.7.3 7 .2h28.4c4.3 0 7-.3 7-.3s-1.8-.2-6.8-.2zm-4.7 9.5h-19.2c-5.1 0-6.8.2-6.8.2s2.7.3 7 .2h19c4.3 0 7-.3 7-.3s-1.8-.2-6.8-.2zm-2.4 2.6h-14.2c-5.1 0-6.8.2-6.8.2s2.7.3 7 .2h14c4.3 0 7-.3 7-.3s-1.8-.2-6.8-.2zm4.2-5.2h-22.6c-5.1 0-6.8.2-6.8.2s2.7.3 7 .2h22.4c4.3 0 7-.3 7-.3s-1.8-.2-6.8-.2zm-7.6 7.8h-7.4c-5.1 0-6.8.2-6.8.2s2.7.3 7 .2h7.2c4.3 0 7-.3 7-.3s-1.8-.2-6.8-.2zm1.3-.9h-10c-5.1 0-6.8.2-6.8.2s2.7.3 7 .2h9.8c4.3 0 7-.3 7-.3s-1.8-.2-6.8-.2zm-4.9 2.6h-.2c-5.1 0-6.8.2-6.8.2s2.7.3 7 .2h.1c4.3 0 7-.3 7-.3s-1.8-.2-6.8-.2zm2-.8h-4.2c-5.1 0-6.8.2-6.8.2s2.7.3 7 .2h4c4.3 0 7-.3 7-.3s-1.8-.2-6.8-.2zm4-2.6h-12.4c-5.1 0-6.8.2-6.8.2s2.7.3 7 .2h12.2c4.3 0 7-.3 7-.3s-1.8-.2-6.8-.2zm4.1-4.3h-20.6c-5.1 0-6.8.2-6.8.2s2.7.3 7 .2h20.4c4.3 0 7-.3 7-.3s-1.8-.2-6.8-.2zm-2.2 2.6h-16.2c-5.1 0-6.8.2-6.8.2s2.7.3 7 .2h16c4.3 0 7-.3 7-.3s-1.8-.2-6.8-.2zm2.9-3.5h-21.8c-5.1 0-6.8.2-6.8.2s2.7.3 7 .2h21.6c4.3 0 7-.3 7-.3s-1.8-.2-6.8-.2zm-10.9 9.5c-3.3.1-4.6.2-4.6.2s1.7.2 4.6.2c2.9-.1 4.6-.2 4.6-.2s-1.2-.1-4.6-.2zm8.9-6.9h-18c-5.1 0-6.8.2-6.8.2s2.7.3 7 .2h17.8c4.3 0 7-.3 7-.3s-1.8-.2-6.8-.2z" fill="#d43d1a"/><path d="m564.3 206c-5.1-1.4-26.1-20.3-29.5-19.7-3.4.7-15.6-7.5-15.6-7.5h-16.7c3.4 1.6 6.8 2.8 9.8 2.8 8.7 0 22.5 9.4 26.2 17.8h-.3c5.4 6 8.8 13.5 15.3 18.4 2.3 1.8 4.9 3.2 7.5 4.4 1.3.4 2.6.9 4 1.3 16.9 4.8 47.3-.2 54.9-2v-4.8c-20.4 1.2-50.9-9.4-55.6-10.7z" fill="#ff6624"/><path clip-rule="evenodd" d="m56.8 239.3c22.4-3.2 42.1-7 55.1-11.6 51.3-18.3 68-34.6 77.1-34.6 2.1 2.9 4.5 5.6 7.2 7.4 9 6.3 28.5 10.2 27.8 4.5-.4-3.2-4.6-10.8-8.3-16.9 10.9-6.9 33.6-18.3 38.7-16l.2.1c.4 1.9 0 4.6 2.5 10.1 3.8 8.7 26 11.8 29.2 14.4s-8.5 3.7-2.7 10.7c5.8 6.9 30.3 6.9 39.5 12.6s-5.8 15 22.7 18.9 88.3-4.5 108.9 3.1c20.7 7.6 2.5 21.3 21.3 27.6s96.5 7.6 103 7.6c1.9 0 16.4-.8 35.9-2v19h-614.7v-39c7.9-1.9 14.6-3.8 17.8-5 8.5-3.1 79.6 3.7 96.5-2.6 11.5-4.2-28.8-7-57.7-8.3z" fill="#ed400a" fill-rule="evenodd"/><path d="m614.8 275.3c-19.4 1.2-33.9 2-35.9 2-6.5 0-84.1-1.3-103-7.6-18.8-6.3-.7-20.1-21.3-27.6-20.7-7.6-80.5.8-108.9-3.1-28.5-3.9-13.5-13.3-22.7-18.9-9.2-5.7-33.7-5.7-39.5-12.6s5.8-8.1 2.7-10.7c-3.2-2.6-25.3-5.7-29.2-14.4-2.4-5.5-2-8.1-2.5-10.1 5.8 2.7 14.1 12 22.5 14.4 8.5 2.4 18.2 5 25.3 10.7 7.2 5.7 47.3 12 57.6 16.3 10.3 4.4 75.3 12.6 94.6 18.3s65.5 30.2 99.8 34.6c8.2 1 30.7 2.5 60.4 4.2v4.5zm-418.7-74.8c-2.7-1.9-5.1-4.6-7.1-7.4 9.1 0 14.8 3.7 23.3-2.6.9-.7 6.3-3.9 7.6-4.8 3.6 6 6.4 18.8 3.8 20.8-6.7 5.1-18.6.3-27.6-6z" fill="#b02424"/><path d="m56.8 239.3c28.9 1.3 69.2 4.1 57.7 8.5-16.8 6.3-88-.5-96.5 2.6-3.3 1.2-9.9 3.1-17.8 5v-9.7c19.1-1.8 38.6-3.9 56.6-6.4z" fill="#ff6624"/><path clip-rule="evenodd" d="m614.8 306.6h-614.6v-32.3c55.4-5.1 80.4-2.6 113.6-2.6 34 0 31.9-2.7 44.6-11.3s48.7-5.7 63.1-3.7 47.7-15.3 71-13.3 126.2 30.3 142 32.3 132.1 9.3 156.4 10.3c3.4.1 11.9.2 23.9.3z" fill="#d43d1a" fill-rule="evenodd"/><path d="m326 230.2-.4-.3-28 1.4 25.9-3-.5-.3-27.5 1.4 25.5-2.9-.5-.4-27.2 1.3 25.4-2.9-.4-.4-27 1.3 25.6-2.9-.3-.4-27.3 1.3 26-3-.3-.4-27.8 1.4 26.5-3-.2-.3-28.3 1.4 27.1-3.1-.2-.3h3.9s7 2.6 10.4 6 4.7 9.2 4.7 9.2l-2.8.6-28.6 1.4z" fill="#b02424"/><path d="m443 240.7s-13.3 1.4-13.2 1.5l16.9-.1-15.9 1.8 18.5.5-15.8 1.7 18.3-.3-16.5 2.7c.1.2 17.8-.8 17.8-.8l-17.1 3 16.5-.5-14.9 2 16 .2-14.3 1.9 13.4.3-11.8 1 2.9 1.8c-3.5.6-6.8.6-9.3-.4-9.5-3.9-16.1-16.4-52.4-17.6-.6 0 29-2 28.4-2.3 1.9 0 4.3.2 6.3.3 5.1.3 7.1 1.4 9.1 2.3z" fill="#837793"/><path d="m344.7 252.6c1 .1 5.3.4 8 1.8 3.1 1.6 4.2 3 4.2 3-.1 0-3.2-1.6-5.5-2.2-1.9-.5-5.6-.8-7-1v.1c1.4.2 4.9.7 7.2 1.9 2.9 1.5 4 2.8 4 2.8s-3-1.5-5.2-2.1c-1.6-.4-4.7-.7-6.3-.9-2.4 0-6 1.8-6 1.8s4.6 0 5.4.1c2.1.3 4 1.9 4 1.9s-9.8-.8-14.8 1.5c-3.7 1.7-2.7-1.8-2.7-1.8l-2.6-8.8s7.5-2.9 18.5-5c4.7-.9 7.6-.2 9.2.5.7.2 1.4.5 2 .8 3.7 1.9 5 3.6 5 3.6-.7-.2-3.8-1.9-6.6-2.7-1.4-.4-3.5-.7-5.4-.9l-.6.3c2 .1 4.7.5 6.6 1.5 3.5 1.9 4.8 3.5 4.8 3.5-.6-.2-3.6-1.9-6.4-2.6-1.8-.5-5-.8-7-1-.1.1-.2.2-.4.3 1.9.1 5.4.4 7.8 1.6 3.4 1.8 4.6 3.3 4.6 3.3-.4-.1-3.5-1.8-6.1-2.5-1.9-.5-5.7-.9-7.4-1l-.2.3c1.5.1 5.5.4 8 1.7 3.2 1.7 4.4 3.2 4.4 3.2-.3-.1-3.3-1.7-5.8-2.4-2.1-.6-6.3-.9-7.6-1z" fill="#999b56"/><path d="m344.7 252.6c1 .1 5.3.4 8 1.8 3.1 1.6 4.2 3 4.2 3-.1 0-3.2-1.6-5.5-2.2-1.9-.5-5.6-.8-7-1v.1c1.4.2 4.9.7 7.2 1.9 2.9 1.5 4 2.8 4 2.8s-3-1.5-5.2-2.1c-1.6-.4-4.7-.7-6.3-.9-2.4 0-6 1.8-6 1.8s4.6 0 5.4.1c2.1.3 4 1.9 4 1.9s-9.8-.8-14.8 1.5c-3.7 1.7-2.7-1.8-2.7-1.8l-2.6-8.8s7.5-2.9 18.5-5c4.7-.9 7.6-.2 9.2.5.7.2 1.4.5 2 .8 3.7 1.9 5 3.6 5 3.6-.7-.2-3.8-1.9-6.6-2.7-1.4-.4-3.5-.7-5.4-.9l-.6.3c2 .1 4.7.5 6.6 1.5 3.5 1.9 4.8 3.5 4.8 3.5-.6-.2-3.6-1.9-6.4-2.6-1.8-.5-5-.8-7-1-.1.1-.2.2-.4.3 1.9.1 5.4.4 7.8 1.6 3.4 1.8 4.6 3.3 4.6 3.3-.4-.1-3.5-1.8-6.1-2.5-1.9-.5-5.7-.9-7.4-1l-.2.3c1.5.1 5.5.4 8 1.7 3.2 1.7 4.4 3.2 4.4 3.2-.3-.1-3.3-1.7-5.8-2.4-2.1-.6-6.3-.9-7.6-1z" fill="#929b71"/><path d="m265.3 187.7-.1-.2c-.9 0-3.7-.1-5.1.2-1.7.4-3.7 1.5-3.9 1.6 0 0 .8-1.2 3-2.4 1.7-1 4.4-.8 5.4-.8l-.1-.3c-1.2 0-3.7-.1-5 .2-1.7.4-3.8 1.6-4.1 1.6 0 0 .8-1.3 3.1-2.5 1.6-.9 4-.8 5.2-.7l-.2-.3c-1.3 0-3.5 0-4.7.2-1.8.4-3.9 1.6-4.3 1.7 0 0 .9-1.3 3.3-2.7 1.3-.7 3.1-.8 4.4-.7-.1-.1-.3-.2-.4-.3-1.3 0-2.7 0-3.6.2-1.9.4-4 1.7-4.5 1.8 0 0 .9-1.4 3.4-2.8.4-.2.9-.4 1.3-.5 1.1-.5 3-.9 6.2.4 7.3 3 9.2 11.3 9.2 11.3l-4.2.4s-2.4-2-4-2.3c-1 0-3.1-.1-4.2.2-1.5.3-3.5 1.4-3.5 1.4s.7-1.1 2.7-2.2c1.6-.9 3.9-1 4.9-1-.9-.2-3.4-.2-4.7.1-1.6.3-3.6 1.5-3.7 1.5 0 0 .8-1.1 2.8-2.3 1.8-1 4.7-.9 5.4-.8z" fill="#990024"/><path clip-rule="evenodd" d="m397.3 205.3c22.6-12.9 35.2-19.5 37.2-17.8l12.5-2c1.3 2.3 18.6 4.9 19 1.2 9.9-3.2 25.4-7.9 32.2-7.9h4.3c3.4 1.6 6.8 2.8 9.8 2.8 9.1 0 22.5 10.9 29.6 16.7 9.9 8.2 12.4 15.1 31.5 20.5 16.9 4.8 39.1 4.1 46.6 2.4v84.8h-620.5l.5-20c59.5.8 231.4 1.6 256.4-1.5 37.3-4.7 75.4-17.9 85.4-11.8s43.2-8.8 72.2-16.3c29.6-7.6 36 3.3 58-.7 26.1-4.7 26.6-1.9 25.3-7.3s-10.4-5.1-18.9-8.6-53.5-10-53.5-16c0-6.1-5.8-9.7-6.5-13s6.3-12.2 1.4-11.5c-1 0-9.7 2.4-22.5 6z" fill="#b02424" fill-rule="evenodd"/><path d="m468.1 227.4 2.1-.4c3-.3 6.7-.7 11-.8 4.5-.1 7.2.8 8.6 1.6.6.3 1.3.6 1.8.9 3.2 2.1 4.3 3.6 4.3 3.6-.7-.3-3.4-2.1-5.9-3.1-1.2-.5-3.2-1-5-1.4-.2 0-.4.1-.6.2 1.9.4 4.3 1 6 2.1 3.1 2 4.1 3.5 4.1 3.5-.5-.2-3.2-2-5.7-3-1.6-.6-4.6-1.3-6.5-1.7-.1.1-.3.2-.4.2 1.8.3 5.1 1 7.1 2.3 3 1.9 3.9 3.3 3.9 3.3-.4-.2-3.1-1.9-5.4-2.8-1.8-.7-5.3-1.5-6.9-1.8l-.2.2c1.4.3 5.1 1 7.4 2.4 2.8 1.8 3.8 3.2 3.8 3.2-.3-.1-2.9-1.8-5.2-2.7-1.9-.7-5.8-1.6-7-1.8l-.1.2c.9.2 5 1 7.4 2.5 2.7 1.7 3.6 3 3.6 3-.1-.1-2.8-1.8-4.9-2.6-1.7-.7-5.2-1.4-6.5-1.7 1.3.4 4.6 1.3 6.6 2.6 2.6 1.6 3.4 2.9 3.4 2.9s-2.6-1.7-4.7-2.4c-1.5-.6-4.4-1.2-5.8-1.5-1.7-.2-4.1.3-5.3.6l.2.3c1.3.2 3.7.5 4.2.7 1.9.5 3.5 2.1 3.5 2.1s-2.8-.6-6.1-.9c1.1 1 2.3 1.9 3.6 2.4 8.5 3.5 24.9 3.2 26.2 8.6s-1.6 4.1-28 6c-18.7 1.3-26 4-55.3 4.3-29.9.4-78.1 29.1-88.1 23s-39.5-1.9-76.8 2.8c-25.1 3.2-197.1 2.4-256.6 1.5l.1-6.8s243.9 1.9 277.6-8.9c21.6-6.9 79.4-41.9 119.6-64.9 12.9-3.6 21.5-6 22.6-6.1 4.9-.7-2.2 8.2-1.4 11.5.5 2.2 21.9.2 36 .5l-25.7 2.5 31.7-1.2.1.4-30.7 3 31-1.2.1.4-30.1 2.9 30.5-1.2.1.4-29.6 2.9 30.2-1.2.2.4-29.4 2.9 30.4-1.2.3.4-29.6 2.9 30.8-1.2.3.4-30 2.9 31.3-1.2.3.4-30.5 3zm151.9 55.6v2.7c-18.9-2.7-44.1-7.2-48.4-8.1 15.2 1.9 33.8 3.9 48.4 5.4zm0-6.2c-19.1-2.4-44.9-6-47.2-6.5 9.1 1.2 29.9 2.9 47.2 4.3zm0 5.9c-18.9-2.6-44.4-6.8-48-7.6 13.3 1.7 32.6 3.6 48 5.1zm-47.6-10c11.3 1.5 31.3 3.3 47.6 4.7v2.3c-19-2.5-44.7-6.4-47.6-7zm47.6-7.6-45.6-4.5 45.6 2.6zm-46-2.1c2.4.3 25.7 1.8 46 3.1v1.9c-19.5-2.1-45.5-4.9-46-5zm-.4 2.4c4.7.6 27.1 2.2 46.4 3.5v2c-19.4-2.2-45.3-5.2-46.4-5.5zm-.4 2.4c6.9.9 28.5 2.6 46.8 3.9v2.1c-19.2-2.3-45.1-5.6-46.8-6z" fill="#d43d1a"/><path d="m.5 295.9h619.9v100.6h-619.9z" fill="#bf3324"/><g clip-rule="evenodd" fill-rule="evenodd"><path d="m-.5 297 161.9 2.4-161.9 1.2zm0 3.9 154.6 2.3-154.6 1.2zm0 3.8 147.3 2.3-147.3 1.1zm0 3.9 140 2.2-140 1.1zm0 3.9 132.7 2.1-132.7 1zm0 3.9 125.4 2-125.4 1zm0 3.8 118.2 2-118.2.9zm0 3.9 110.9 1.9-110.9.9zm0 3.9 103.6 1.8-103.6.8zm0 3.9 96.3 1.7-96.3.8zm0 3.8 89 1.6-89 .8zm0 3.9 81.8 1.5-81.8.8z" fill="#990024"/><path d="m620 350.4-197.6.8 197.6 1.6zm0-2.8-187.7.8 187.7 1.5zm0-2.8-177.9.7 177.9 1.5zm0-2.8-168.1.7 168.1 1.5zm0-2.8-158.2.7 158.2 1.4zm0-2.8-148.4.7 148.4 1.3zm0-2.7-138.6.6 138.6 1.2zm0-2.8-128.7.5 128.7 1.2zm0-2.8-118.9.5 118.9 1.2zm0-2.8-109.1.5 109.1 1.1zm0-2.8-99.2.5 99.2 1zm0-2.8-89.4.5 89.4.9zm-22.8-13.2c0 .8-19.1 1.5-42.7 1.5s-42.7-.7-42.7-1.5 19.1-1.5 42.7-1.5 42.7.7 42.7 1.5z" fill="#b02424"/></g><path d="m251.3-.5h7.4c.3.8.5 1.5.7 2 .4 1.3 3.3 8.1 3.3 8.1s-1.3 1.3-2.8 2.7c.5 1 .8 1.7 1 1.9.8 1.2 2.8 3.8 3.1 4.8s1 5.2 1.2 6.2 1.6 7.6 1.8 8.5c.2.8 4.5 5.7 5.1 7.7s4.2 8.8 4.6 10-.1 3.8 0 4.2c.1.3 0 6.6.2 7.5s.6 5.6.7 6.5-1.1 1.3-1.1 1.3.1 1.4.3 2.2-1.5 2.8-2.1 3.5c-.5.7-3.8 5.8-4.5 6.5-.7.8-5.1 5.5-5.1 5.5s-1.7.8-2.7 0-.7-2.5-.7-3.1v-1.4s-.2-.4-.7-1-.2-1.4.2-2.3 3.1-4.3 3.1-4.3-.2-1.5-.1-2.6 1.4-2.9 1.4-2.9-.4-1.3-.8-2.9-.7-4.1-.7-4.1-2.2-2.1-2.8-3.7c-.6-1.5-1-3.4-1.4-4.4-.3-1-3.1-1.4-3.6-1.4s.5 1.6.7 1.9.4 1.9.6 4.6c.1 2.6-.9 6.7-1.3 6.9s-2.5 1.2-3.5.7c-1.1-.5-2.5-4.9-3-6.6s-.6-5.8-.8-6.5-1.6-3.6-2-4.4c-.4-.7-2.2-5.8-2.8-9.3s1.7-8.7 1.7-8.7.9-2.1.8-3.1c-.1-.9-3.1-6.7-3.9-8.1-.2-.4-1-1.4-2.2-2.7l-2.5.1-4.5.2s-1.1-1.1-2.3-4.7-4.1-5.3-5-10c-.7-3.7-4.9-1.9-7.1-5.1h32.1z" fill="#870a0f"/><path d="m256.1 14 3.9-1.9c.9 1.9 1.2 2.3 1.5 2.7.8 1.2 2 3.1 2.4 4.1s1 5.2 1.2 6.2 2 5.4 2.2 6.2 4.1 8 4.7 10 4.2 8.8 4.6 10-.1 3.8 0 4.2c0 .1.9 11.9.9 13-.7-2-2.3-14.9-2.6-15.6-.9-2.1-5.4-9-8.1-14.6-2.7-5.5-5.5-15.3-5.7-17.6-.3-2.3-5-6.7-5-6.7z" fill="#ff8745"/><path d="m158.2-.5h59.8l6.2 9.9 4.6 10.2s2.7 2.8 3.3 5.2-1.3 4.1 0 6.5 0 5.1.8 7.8 6.2 4.5 7.3 5.7c1 1.2 1.5 2.7 2.4 4.6s.5 4 .8 5.4 3.4 2 3.8 3.7c.3 1.7.2 7.4 1.2 8.7.9 1.3 14.4 29.1 14.5 30.8s4.5 10.4 4.6 12.2c.1 1.7 3.3 9.7 3.8 12.2.6 2.4 4.9 13.6 6.1 16.8 1.2 3.3 2.4 18.9 1.9 20.4s-.7 1.9-.4 5.1c.3 3.3.6 4.8.2 6.4-.3 1.6-.3 9 .5 13.2s-.7 10.1-.2 13.2c.5 3.2-.6 14.9-.9 17.8-.3 2.8 2.6 10.4 2.4 14.8-.1 4.4 3.5 16.2 4.2 21.5s1 21.5 1 22.7c0 1-2.6 4.9-3.8 6.2.5.9 3.7 4.6 4.8 5.7 1.1 1.2 3.7 2.9 5.5 3.7s5.8 2.4 7.8 3.6 4.2 3.6 4.6 4.4 1.8 3.7 2.5 4.6.7 4.1.7 4.1l-.6 2.3v1.6l-1.3 1.3-1.4-.2-.3.9s-3 1-5.6.8c-2.6-.1-12.8-.5-14.1-.7s-11.1 2.6-14.5 2.3-14.5-1.9-20.8-3.1-11.8-3.8-11.7-4.6.6-7.1 1-8.2c.3-1.1 2.8-4.8 2.8-4.8s.2-7.5.4-9.6c.1-1.6.5-5.5.8-7.9h-5.8v-2.7s-.3-4.3-.6-5.8c-.2-1.5-.9-4.6-.9-4.6s-2.6-5.7-1.2-9.2 4.9-5 2.5-7.8c-2.5-2.8-3.5-17.1-3.5-25.3v-23.4c0-3.3.4-7.5.4-7.5s-1.4-7.5-1.4-9.6.4-4.7.4-4.7-7.5-7.1-7.8-11c-.4-3.9-2.1-8.2-2.1-8.2s-5-4.7-5.4-8.2-2.5-16-4.6-18.1-8.5-8.9-9.6-10.3-23.5-16.7-23.5-16.7l-27-24.6c-3.2 6.1-7.1 13.3-9.9 16.9-2 2.5-6 11.9-7.5 14.8-1.5 3-7.1 20.2-8.1 23.9-1 3.8-6.9 15.8-7.2 17.6-.3 1.7-3.1 15-3.5 17.8s-6.3 22.1-7.5 25.1-9.6 14.2-10.2 17.6c-.6 3.5-3.6 40.2-4.3 44.7s-3 30.2-3.8 35.2-5.2 16.5-5.2 16.5-6 13.1-6.2 14.5c-.1.7-1.1.9-2 .9.2.4.3.7.4 1.1 1 2.9.1 8.1.1 8.1s-.9 1.2-1.2 3.1c-.4 1.9-1.6 1.6-2.7 3.6-1.2 2-4.5.9-4.8 1.7s-1.1 2.3-3.3 4.1c-2.2 1.9-5.8 1.7-15.5.6-9.7-1.2-17-6.3-17-7.6s-.9-9.9-.5-14.4c.3-3.3 1.9-7.9 2.3-10.7-2.5-.5-4.2-.9-4.2-.9l.6-6s4.1-10.2 2.7-12.6-5.2-9.8-3.8-19c1.4-9.1 5.2-14.9 6.1-20.6s.9-14.4 3-21.2 7.8-22.6 8.8-26.3c1-3.8 2.5-18 2.5-18s0-6.5 1.1-11.3 3-8.5 3.4-10.2 3-7.1 3-7.1 2-10.6 2.2-13.7c.1-3.2-.4-9.1 0-20.9s1.1-13.6 1.7-17.4 1.6-8 1.6-8-2.5-8.7-1.4-11.4 1.3-12.5.8-14-3-8.8-2-10.7c1-2 .2-17.2.3-19.7 0-2.5 1-10.6 1-10.6s.6-8.1 1.5-12c1-3.9.6-10.4 1.5-14.2.5-2.1 1.4-6.3 2-9.4h90.6z" fill="#870a0f"/><path d="m55.6 45.6c.5 2.5 1.1 4.9 1.1 5.4.2 1.2 1.5 3.9 1.5 3.9s3.2 6 3.3 8c.2 1.9.4 5.2.5 5.7s.5 3.7.1 4.7-2.2 8-2.2 8.8c-.1.8-.1 2.5-1.1 3.7-1 1.1-2.2 1.8-2.2 1.8s-.2 9.3-.9 10c-.6.7-.5 3.6-.9 4.3-.3.7-1 6-1.9 6.4s-3.2 1.7-4.3.1-1.6-5.4-1.6-5.4l.3-4 .5-5.6v-4.2l-1 .1-1.2 7.2-.1 4-.6 2.8s-.3 4.3-1 5.4-2 1.5-3.5.9c-1.5-.5-2.2-2.3-2.2-2.3l-.6-2.7s-1.8 0-2.7-1.4-1.7-6.8-1.7-6.8l-.9-4.3s-3.5-5-3.9-5.8-1-4.5-.8-5.5c.2-1.1.9-5 1-6.2s1.6-6.4 2-8 2.9-9.6 3-11.2c.1-1.7.1-3.3.1-3.7s-1.1-7.5-1.3-8.4c0-.1-.1-.5-.2-1-1.2-.9-2.5-2.1-2.9-3-.8-1.6-2.4-6.8-2.5-9.4-.1-2.7-5.7-15.1-5.6-20.5 0-3.1-1-6.7-1.9-9.7h45.9c-.1.6-.2 1.1-.3 1.6-.9 4.7-3.9 8.2-4.8 11.6-.8 3.4-2.4 12.5-1.5 16.5s.1 10.9.1 10.9-.9 4.2-3.1 5.3z" fill="#870a0f"/><path d="m215.4-.3h2.8l6 9.7s3.1 2.1 3.6 5.4 1 4.8 1 4.8 2.7 2.8 3.3 5.2.3 2.9 1.6 5.4c1.3 2.4-1.6 6.2-.8 8.9s6.2 4.5 7.3 5.7c1 1.2 1.5 2.7 2.4 4.6s.5 4 .8 5.4 3.4 2 3.8 3.7c.3 1.7.3 4.2 1.3 5.5.9 1.3 6.3 12 6.9 14.2s7.3 18 7.5 19.8c.1 1.7 4.5 10.4 4.6 12.2.1 1.7 3.3 9.7 3.8 12.2.6 2.4 3.5 6.8 4 8.8s.9 4.8 2.1 8.1 1.2 6.6 2.2 9.3.2 1.9.2 3.5-.1 6.1-.6 7.6-.7 1.9-.4 5.1l.2 1.8c-1.9-7.4-.2-16.2-7.5-35.5-2.9-7.8-7.5-19.3-15-39.5s-17.2-34.8-18.2-38-4.3-6.2-7.5-8.4c-3.3-2.2-2.6-8.5-2.6-11.2-.1-2.7.7-6.4-4-10.7-4.8-4.5-8.8-23.6-8.8-23.6z" fill="#ff8745"/><path d="m145 100s9-5 12-1 8 5 13 9 8 7 14 11 11 5 13 12 8 6 9 10 1 13 1 13l5 10c2 4 3 15 3 15s1 6 3 11 3 16 3 20-1 17 0 20 2 12 2 12v9c0 3 2 17 2 17l2 13 1 10-2 10-1 10 41 4-9-106-50-123-71-41-15 20-6 40z" fill="#870a0f"/><path d="m150 93s-3 7-7 11-12 11-10 16-4 14-4 17-4 10-4 14-5 23-5 26-2 17-8 22-4 13-4 17-4 16-4 19-1 12-1 15-1 14-1 17-2 16-2 16l-4 11-3 12v13l-1 13-36 16 4-91 48-185 53-11zm86.1-74.7s1.2 3 1.5 4.8 1.5 3.6 1.5 5.2 1.5 3.3 1.2 4.9c-.3 1.5-.9 3.9-.6 5.2.3 1.2.3 3.6 1.8 5.2 1.5 1.5 2.7 5.2 3 6.4s1.8 7.6 1.8 7.6 1.5 3 1.5 4.2 0 3.6.9 4.2 1.8 1.2 2.7 2.1 2.1 1.2 3 .9 2.7-2.7 2.7-2.7l.9-4.5.3-4.2s2.1 5.5 2.4 6.7 1.5 4.2 1.5 4.2-.6 4.5-.6 5.5-.9 2.7-.9 3.6-1.5 3.3-1.5 3.3l.3 3 1.8 3.9 2.4.9s11.5-15.2 11.5-16.1-2.4-14.9-2.4-14.9l-13.3-24.6-3-13.6-5.2-11.5zm-217.4-18.3s1.3 19.7 2 24.3.7 8 2 10.7 5.3 10.7 5.3 10.7-2 5.3-1.3 7.3-.7 10-.7 10l-4 12.7 2 8 4.7 6.7.7 6 1.3 8 4 3.3 2.7 2h4.6l2.7-2 2.7-6.7s0 5.3 2.7 6.7c2.7 1.3 6-.7 6-.7l.7-8.7 2-9.3 2.7-21.3-4.7-24v-18.7l-1.5-25z" fill="#870a0f"/><path d="m308.2 313.5s.6-11-1.1-14.3-6.6-7.2-6.6-7.2l-8-1.8-9.1-7.6s3.3 9.4 7.7 10.5 9.2.7 9.2.7 3.5 5.4 4.6 7.6c1.1 2.1 3.3 12.1 3.3 12.1zm-22.2-47.5s-.6-8.1-1.1-14.3c-.4-6.2.1-12.2-.9-14.2s-4.4-5.6-3.2-7.3 1.2-4.7 1.2-7.2-1.5-10-2.5-13-2-11-2-11 1 20.5 1 22.5-1 8 0 10.5 3.5 6 3.5 8.5-.5 12 0 13.5 1 6 1 8 3 9.5 3 9.5z" fill="#ff8745"/><path d="m409.5 156.2c0 9.6-7.8 17.4-17.4 17.4s-17.4-7.8-17.4-17.4 7.8-17.4 17.4-17.4 17.4 7.8 17.4 17.4z" fill="#ed400a"/><path d="m444.1 135.3c0 11.1-9 20.1-20.1 20.1s-20.1-9-20.1-20.1 9-20.1 20.1-20.1c11.1-.1 20.1 8.9 20.1 20.1z" fill="#990024"/><path d="m423.9 246.8-3 9.2-3.7 29.2-1.2 4.6-.2 16.3 1.6-4 5.6-10.8s4.7-14.5 7.6-17c0-7.8-3.6-13-3.6-13zm25.1-16.5c.6 5.2 1.3 10.8 1.3 10.8s1.7 19.1 1.4 21.1c-1 6.5-.4 10.7-2.2 14.2-1.3 3.2-6.4 13.6-6.4 13.6l-2.4 5.7-11.1 19.2s-1.5-1.6-1.5-.9c-.1 2.6.8 7.2 1.8 8.9.9 1.7 3.1 4.7 3.3 6.7.3 2-.9 6.5-2.3 7.4s-7.1.1-8-1.2c-.9-1.4-3.3-9.3-3.3-9.3l-4.9-8.7-.4 8.5.6 5.1v7c-1.7 1.8-3.7 1.3-5 1.2-1.3 0-6.9.1-7.9-1.9-.9-2 .9-10.2 1-11.8.1-1.7-1.2-5.5-1.2-5.5l-1.7-6.5.4-23.3-1.1-5-1.8-23.7.3-9-.9-7.6s2.1-8.7 1.8-10.4c-.1-.5.1-1.5.3-2.7l-2.3-7c0-1.3 1.5-1 1.6-2.3s.8-3.2.8-3.9 1.1-2.8 1.4-3.7.3-1.4.3-1.9c0-.3-.7-.6-1.2-1-.4 1.2-.7 2.3-.7 2.9-.2 1.7-1.9 3.6-1.9 3.6s-2.2-.5-2.2-1.1 1.4-.8 2-3c.5-1.5 1.4-4.1 2.1-6.3v-1c0-.9-.5-3-.6-3.9s-.7-3.7-.9-4.9c-.2-1.1-.2-5-.2-5s-1.5 2.4-1.9 3.3-1.3 2.5-1.4 3.2-.6 4.3-.6 5.5-1.4 3.3-1.9 4.1-.1 3.4 0 4.1c.1.6-.5 5.4-.5 6s-.7.5-.7.5.2 1.7.2 2c.1.2.5 1.7.5 2.8.1 1.1-.2 2.6-.2 2.9-.1.3 0 .9.1 1.2s.1.9.1 1.4.2 2.4.2 2.4-.4.3-.7.2c-.3 0-.7-.1-.7-.1s-.2.3-.5.4-1.2-.1-1.5-.2-1.4.1-1.4.1.5.9.6 1.2 1.1 1.1 1 1.5.1.6-.3.8c-.4.1-.4.1-1-.2-.5-.3-1.7-1.5-2-1.8s-1.4-1.3-1.8-1.5c-.3-.2-2.3-3.3-2.6-3.8-.2-.5-.1-3.7 0-4.1s.4-4.7.4-4.7-.1-.5-.3-.8-.6-.2-.6-.4c-.1-.2-.3-1.3-.3-1.9s.1-5.1-.2-6 .5-6.8.5-8.1 2.2-13.1 2.3-13.9 1-2.5 1.2-3.2 1.7-4 1.7-4.4 2.1-4.7 2.3-5.4 2.4-4.4 2.5-5.3 1.9-5.1 1.9-5.1.5-1.5 1.1-2.3c.5-.8.9-3 1-3.4s2.3-3.7 3.1-4.6c.9-.9 4.7-5 4.9-5.4.1-.1.4-.4.9-.7.3-2.6-1.4-4.1-1-6.1.5-2.2-.4-2.8.3-4.8s2.8-1.7 3.8-2.5 6.3-2.1 6.3-2.1c1.9-.3 12-2.1 16.5-1.6 4.6.5 6 0 7.6 0 1.5 0 7.3 1.6 8.9 5.5 1.5 3.9.6 1.7.2 3.3s-1.2 5.4 0 7.9c.5 1 2.4-.8 2.6.3l1.8 2.1s3.6 6.5 3.4 7 2.1 2.8 2.6 3.9c.4 1.1 1.5 4 1.6 4.8.2.7 1.1 2.3 1.3 4.2s3 9.5 3 10.7c.1 1.1 2.3 3.4 2.4 4.3s3.3 9.2 3.4 10.3 1.4 4.3 1.4 5c0 .6 1.1 4.9 1.1 6.1s.1 2.2.1 2.5.8 2 .9 2.8c.1.7-.1 1.2 0 1.7s-.2.7-.5.9-.6 1-.6 1l.1.9s.2 1.5.2 2.1c0 .5.5 2.8.5 3s.6 2.5.6 3c.1.5-.3 1.2-.5 1.6-.2.3-1.6 4.4-1.9 4.6s-.3.4-.6.7c-.3.2-2.5 1.4-2.9 1.6-.4.1-2.6 1.3-2.9 1.4s-.7 0-.9-.4c-.2-.3.2-.9.2-.9s-.7 0-.9-.3-.2-.6-.1-1 1.4-1.1 1.4-1.1-.9-.1-1-.4c-.2-.3-.2-.6.2-1.3.3-.6 1.6-.7 1.6-.7s.2-.2.3-.4c.1-.3 1.2-.8 1.2-.8s0-.3.1-.5.3-.5.4-.7.1-.4.1-.7-.1-.6-.1-.9-.3-.5-.6-.5-.6.4-.9.5-.8 1.4-1.1 2.1-1.7 1.3-2.5 1.3-1.1-.1-1-.9 1.1-1.7 1.2-2.3 1.1-2.2 1.1-3 .5-3.5.5-3.5l-.5-1.3-.7-.7s.2-1.4.2-1.8-.2-1.3-.2-1.6-1.1-2.2-1.6-3.1-.9-1.1-1.1-2.2c-.2-1.2-1.8-5.3-2.4-7s-.7-3.9-.8-4.4-1.2-3.3-1.7-4.2c-.5-.8-.5-2.7-.7-4.6s-1.4-3-1.4-3-1.3 2.3-1.3 3.1-.2 1.2-.2 2-.2 4.8 0 6.7c.2 1.7-.7 3.5-1.1 5.3.4.6.9 1.2 1.3 1.6 2.4 2.6 2 4 2 4l-.8 1.4s-1.3-3.6-2.6-5.3c-.2 1.1-.1 1.4 0 1.6.1.3-.3 2-.3 3 0 1.3 1.7 6.3 1.7 6-.1 1.3-.2 7.5-.2 7.5z" fill="#990024"/><path d="m471 214.1c-.1-.7-.9-2.5-.9-2.8s-.1-1.3-.1-2.5-.1-2.4-.2-3.1c-.2-.7-.9-2.3-.9-3 0-.6-1.3-3.8-1.4-5-.1-1.1-1.2-4-1.4-5.1-.2-1-1.9-4.3-2.1-5.2-.1-.9-1.3-2.5-1.4-3.7-.1-1.1-1.6-5.3-2.3-6.4s-1.6-3-1.8-4.9-1.1-3.5-1.3-4.2-1.2-3.7-1.6-4.8-1.9-3.7-1.7-4.3c.2-.5-.3-2.1-2.1-3.7-1.7-1.6-3.6-4.8-3.6-4.8l-.4-.3c0-.1 0-.2-.1-.3-.8-.4-1.6-.9-2.5-1.3 0 .3.1.7.2 1 .7 2.1 3.5 7.4 3.5 7.4l3.3 4.3s5.4 10.3 7.1 17.2 4 13.2 5.4 16.8 3 14.1 3.4 15.2c.2.5 1.1 3.6 1.9 6.4.1-.1.2-.3.3-.3.3-.2.6-.3.5-.9.1-.5.3-1 .2-1.7z" fill="#ed400a"/><path d="m443.7 143.4v4.4s1.4 1.1 1.3 1.7c.8-1.2.2-2.9.9-4.1v-.1c.2-1.5.1-3.1.3-4.2.2-1.2.3-.6-1.2-4.5s-9.8-3.6-11.3-3.6-2.9 0-7.5-.4c-4.6-.5-12.8 1.2-14.6 1.5 0 0-1.5 1.6-3 1.9-1.4.3-4.8 1.4-4.8 1.4s2.3 1 5.5 0c3.3-1 11-3.5 15.7-3.5s4.7.8 9.1.7c2.6-.1 6.5.5 8.3 3.1 1.7 2.6 1.3 4.4 1.3 5.7z" fill="#ed400a"/><g fill="#990024"><path d="m451.5 181.3s.6 19.7.6 23.2-1.7 6.4 0 11.6 1.7 8.7 1.7 11-1.2 12.7-1.2 12.7l.6 11s-.6 18.5-.6 20.3c0 1.7-8.1 20.9-8.1 20.9s-5.8 9.3-6.4 12.7c-.6 3.5-5.2 11.6-5.2 11.6l1.2 3.5 2.9 8.1-.6 4.6v5.2l-10.4-.6-8.1-20.9 11.6-63.7-12.2-49.3z"/><path d="m399.9 190.5s-.9 22.5-1 24.9 1.5 17.5-.2 19.5-2.9 13-2.9 17.7c0 4.6 1.7 9.3.6 13.9-1.2 4.6 1.7 20.3 1.7 22.6s-.6 19.7-.6 19.7l-1.2 7 1.2 6.4-1.7 9.3 16.8 4.1s2.3-30.7 2.3-32.5c0-1.7 2.3-38.2 2.3-38.2l8.1-12.7-11.6-61.4h-13.8z"/><path d="m409.5 206.5s9.4 6.4 8.2 9.7 1.8 10.8 1.8 10.8l2.6 2.8 3.4-2.3-8.5-30zm-18.5 13.6.5-6 3.8-6.8 2.2-8.5 2.4-8.3-6.4-19.1-4.6 2.3s-8.1 16.8-8.7 20.9-.3 9.4-.3 9.4-2.1 13.2-.3 14.1c1.7.8 11.4 2 11.4 2zm48.3-82.5-10.5-4.3-17.3-3.4-6.2 2.9 2.3 14.1 21.6-2.3z"/></g><path clip-rule="evenodd" d="m620 354s-186.5-8-307.1-39c-24.7-6.4-49.8-4.6-55-6.7s-65.3-15.9-93.2-14.9c-42.8 1.6-76.3 32.1-84.9 35.8-33.9 14.6-80.3 12.9-80.3 14.5v52.7h620.5z" fill="#870a0f" fill-rule="evenodd"/></svg>